<svg width="26" height="32" viewBox="0 0 26 32" fill="none" xmlns="http://www.w3.org/2000/svg">
<g clip-path="url(#clip0_81411_6040)">
<path d="M7.25 3.92285L8.09115 13.5962C8.18102 14.6297 9.04622 15.4229 10.0836 15.4229H14.9164C15.9538 15.4229 16.819 14.6297 16.9088 13.5962L17.75 3.92285" stroke="#AE1100" stroke-width="1.5" stroke-linecap="round" stroke-linejoin="round"/>
<path d="M10.25 3.67285V2.92285C10.25 1.81828 11.1454 0.922852 12.25 0.922852H12.75C13.8546 0.922852 14.75 1.81828 14.75 2.92285V3.67285" stroke="#AE1100" stroke-width="1.5" stroke-linecap="round" stroke-linejoin="round"/>
<path d="M5.5 3.92285H19.5" stroke="#AE1100" stroke-width="1.5" stroke-linecap="round" stroke-linejoin="round"/>
</g>
<path d="M1.564 28.1729C1.436 28.1729 1.33467 28.1382 1.26 28.0689C1.19067 27.9942 1.156 27.8955 1.156 27.7729V22.9329C1.156 22.8102 1.19067 22.7142 1.26 22.6449C1.33467 22.5702 1.436 22.5329 1.564 22.5329H4.508C4.63067 22.5329 4.724 22.5622 4.788 22.6209C4.85733 22.6795 4.892 22.7622 4.892 22.8689C4.892 22.9755 4.85733 23.0582 4.788 23.1169C4.724 23.1702 4.63067 23.1969 4.508 23.1969H1.964V24.9729H4.348C4.47067 24.9729 4.564 25.0022 4.628 25.0609C4.69733 25.1195 4.732 25.2022 4.732 25.3089C4.732 25.4155 4.69733 25.4982 4.628 25.5569C4.564 25.6155 4.47067 25.6449 4.348 25.6449H1.964V27.5089H4.508C4.764 27.5089 4.892 27.6182 4.892 27.8369C4.892 27.9435 4.85733 28.0262 4.788 28.0849C4.724 28.1435 4.63067 28.1729 4.508 28.1729H1.564ZM9.02769 27.5649C9.10769 27.6449 9.14769 27.7382 9.14769 27.8449C9.14769 27.9462 9.11035 28.0342 9.03569 28.1089C8.96635 28.1782 8.88102 28.2129 8.77969 28.2129C8.67835 28.2129 8.58502 28.1675 8.49969 28.0769L7.27569 26.7009L6.05969 28.0769C5.97435 28.1675 5.88102 28.2129 5.77969 28.2129C5.67835 28.2129 5.59035 28.1755 5.51569 28.1009C5.44635 28.0262 5.41169 27.9382 5.41169 27.8369C5.41169 27.7355 5.44902 27.6449 5.52369 27.5649L6.78769 26.1729L5.58769 24.8369C5.50769 24.7462 5.46769 24.6555 5.46769 24.5649C5.46769 24.4635 5.50502 24.3782 5.57969 24.3089C5.65435 24.2342 5.73969 24.1969 5.83569 24.1969C5.93702 24.1969 6.03035 24.2422 6.11569 24.3329L7.27569 25.6449L8.43569 24.3329C8.52102 24.2422 8.61702 24.1969 8.72369 24.1969C8.81969 24.1969 8.90502 24.2342 8.97969 24.3089C9.05435 24.3782 9.09169 24.4635 9.09169 24.5649C9.09169 24.6662 9.05169 24.7569 8.97169 24.8369L7.77169 26.1729L9.02769 27.5649ZM11.5367 28.2289C11.158 28.2289 10.8247 28.1462 10.5367 27.9809C10.254 27.8155 10.0327 27.5809 9.87269 27.2769C9.71802 26.9729 9.64069 26.6209 9.64069 26.2209C9.64069 25.8155 9.72069 25.4582 9.88069 25.1489C10.046 24.8395 10.2754 24.5995 10.5687 24.4289C10.862 24.2582 11.198 24.1729 11.5767 24.1729C11.7794 24.1729 11.982 24.2022 12.1847 24.2609C12.3927 24.3195 12.5767 24.3995 12.7367 24.5009C12.9074 24.6182 12.9927 24.7542 12.9927 24.9089C12.9927 24.9995 12.9687 25.0769 12.9207 25.1409C12.8727 25.1995 12.8114 25.2289 12.7367 25.2289C12.6887 25.2289 12.6407 25.2182 12.5927 25.1969C12.5447 25.1702 12.4834 25.1329 12.4087 25.0849C12.2754 24.9995 12.15 24.9355 12.0327 24.8929C11.9207 24.8449 11.7847 24.8209 11.6247 24.8209C11.262 24.8209 10.9794 24.9435 10.7767 25.1889C10.5794 25.4342 10.4807 25.7755 10.4807 26.2129C10.4807 26.6502 10.5794 26.9889 10.7767 27.2289C10.974 27.4635 11.254 27.5809 11.6167 27.5809C11.7767 27.5809 11.918 27.5569 12.0407 27.5089C12.1634 27.4609 12.2887 27.3969 12.4167 27.3169C12.4754 27.2795 12.534 27.2475 12.5927 27.2209C12.6514 27.1942 12.7047 27.1809 12.7527 27.1809C12.8274 27.1809 12.8887 27.2129 12.9367 27.2769C12.9847 27.3355 13.0087 27.4102 13.0087 27.5009C13.0087 27.5755 12.9874 27.6449 12.9447 27.7089C12.9074 27.7675 12.8407 27.8289 12.7447 27.8929C12.5847 27.9995 12.398 28.0822 12.1847 28.1409C11.9714 28.1995 11.7554 28.2289 11.5367 28.2289ZM14.1399 28.2129C14.0225 28.2129 13.9239 28.1809 13.8439 28.1169C13.7692 28.0529 13.7319 27.9569 13.7319 27.8289V22.8849C13.7319 22.7569 13.7692 22.6609 13.8439 22.5969C13.9239 22.5275 14.0225 22.4929 14.1399 22.4929C14.2572 22.4929 14.3532 22.5275 14.4279 22.5969C14.5025 22.6609 14.5399 22.7569 14.5399 22.8849V27.8289C14.5399 27.9569 14.5025 28.0529 14.4279 28.1169C14.3532 28.1809 14.2572 28.2129 14.1399 28.2129ZM18.6934 24.1889C18.816 24.1889 18.912 24.2235 18.9814 24.2929C19.056 24.3622 19.0934 24.4582 19.0934 24.5809V27.8369C19.0934 27.9489 19.056 28.0395 18.9814 28.1089C18.9067 28.1782 18.808 28.2129 18.6854 28.2129C18.5734 28.2129 18.4827 28.1809 18.4134 28.1169C18.344 28.0475 18.3094 27.9569 18.3094 27.8449V27.5409C18.1867 27.7649 18.016 27.9355 17.7974 28.0529C17.584 28.1702 17.344 28.2289 17.0774 28.2289C16.128 28.2289 15.6534 27.7062 15.6534 26.6609V24.5809C15.6534 24.4582 15.688 24.3622 15.7574 24.2929C15.832 24.2235 15.9334 24.1889 16.0614 24.1889C16.184 24.1889 16.28 24.2235 16.3494 24.2929C16.424 24.3622 16.4614 24.4582 16.4614 24.5809V26.6529C16.4614 26.9675 16.5254 27.1995 16.6534 27.3489C16.7814 27.4982 16.9787 27.5729 17.2454 27.5729C17.56 27.5729 17.8107 27.4715 17.9974 27.2689C18.1894 27.0662 18.2854 26.7969 18.2854 26.4609V24.5809C18.2854 24.4635 18.3227 24.3702 18.3974 24.3009C18.472 24.2262 18.5707 24.1889 18.6934 24.1889ZM20.6321 28.2129C20.5147 28.2129 20.4161 28.1809 20.3361 28.1169C20.2614 28.0529 20.2241 27.9569 20.2241 27.8289V24.5809C20.2241 24.4529 20.2614 24.3569 20.3361 24.2929C20.4161 24.2235 20.5147 24.1889 20.6321 24.1889C20.7494 24.1889 20.8454 24.2235 20.9201 24.2929C20.9947 24.3569 21.0321 24.4529 21.0321 24.5809V27.8289C21.0321 27.9569 20.9947 28.0529 20.9201 28.1169C20.8454 28.1809 20.7494 28.2129 20.6321 28.2129ZM20.6321 23.4049C20.4774 23.4049 20.3547 23.3622 20.2641 23.2769C20.1734 23.1915 20.1281 23.0795 20.1281 22.9409C20.1281 22.8022 20.1734 22.6929 20.2641 22.6129C20.3547 22.5275 20.4774 22.4849 20.6321 22.4849C20.7814 22.4849 20.9014 22.5275 20.9921 22.6129C21.0881 22.6929 21.1361 22.8022 21.1361 22.9409C21.1361 23.0795 21.0907 23.1915 21.0001 23.2769C20.9094 23.3622 20.7867 23.4049 20.6321 23.4049ZM24.2096 24.1889C24.4656 24.1729 24.5936 24.2822 24.5936 24.5169C24.5936 24.6342 24.5642 24.7222 24.5056 24.7809C24.4469 24.8395 24.3456 24.8742 24.2016 24.8849L23.9616 24.9089C23.6256 24.9409 23.3749 25.0582 23.2096 25.2609C23.0496 25.4635 22.9696 25.7089 22.9696 25.9969V27.8289C22.9696 27.9569 22.9322 28.0529 22.8576 28.1169C22.7829 28.1809 22.6869 28.2129 22.5696 28.2129C22.4522 28.2129 22.3536 28.1809 22.2736 28.1169C22.1989 28.0529 22.1616 27.9569 22.1616 27.8289V24.5729C22.1616 24.4502 22.1989 24.3569 22.2736 24.2929C22.3536 24.2235 22.4522 24.1889 22.5696 24.1889C22.6762 24.1889 22.7642 24.2235 22.8336 24.2929C22.9082 24.3569 22.9456 24.4475 22.9456 24.5649V24.9489C23.0522 24.7142 23.2069 24.5355 23.4096 24.4129C23.6122 24.2902 23.8416 24.2182 24.0976 24.1969L24.2096 24.1889Z" fill="#AE1100"/>
<defs>
<clipPath id="clip0_81411_6040">
<rect width="17" height="16" fill="white" transform="translate(4.5 0.172852)"/>
</clipPath>
</defs>
</svg>
