<svg width="600" height="512" viewBox="0 0 600 512" fill="none" xmlns="http://www.w3.org/2000/svg">
<rect width="600" height="512" rx="30" fill="white"/>
<path d="M108.059 332.288C106.347 332.288 104.795 331.92 103.403 331.184C102.027 330.432 100.939 329.4 100.139 328.088C99.3553 326.76 98.9633 325.264 98.9633 323.6C98.9633 321.936 99.3553 320.448 100.139 319.136C100.939 317.808 102.027 316.776 103.403 316.04C104.795 315.288 106.355 314.912 108.083 314.912C109.539 314.912 110.851 315.168 112.019 315.68C113.203 316.192 114.195 316.928 114.995 317.888L112.499 320.192C111.363 318.88 109.955 318.224 108.275 318.224C107.235 318.224 106.307 318.456 105.491 318.92C104.675 319.368 104.035 320 103.571 320.816C103.123 321.632 102.899 322.56 102.899 323.6C102.899 324.64 103.123 325.568 103.571 326.384C104.035 327.2 104.675 327.84 105.491 328.304C106.307 328.752 107.235 328.976 108.275 328.976C109.955 328.976 111.363 328.312 112.499 326.984L114.995 329.288C114.195 330.264 113.203 331.008 112.019 331.52C110.835 332.032 109.515 332.288 108.059 332.288ZM122.471 318.896C124.471 318.896 126.007 319.376 127.079 320.336C128.151 321.28 128.687 322.712 128.687 324.632V332H125.183V330.392C124.479 331.592 123.167 332.192 121.247 332.192C120.255 332.192 119.391 332.024 118.655 331.688C117.935 331.352 117.383 330.888 116.999 330.296C116.615 329.704 116.423 329.032 116.423 328.28C116.423 327.08 116.871 326.136 117.767 325.448C118.679 324.76 120.079 324.416 121.967 324.416H124.943C124.943 323.6 124.695 322.976 124.199 322.544C123.703 322.096 122.959 321.872 121.967 321.872C121.279 321.872 120.599 321.984 119.927 322.208C119.271 322.416 118.711 322.704 118.247 323.072L116.903 320.456C117.607 319.96 118.447 319.576 119.423 319.304C120.415 319.032 121.431 318.896 122.471 318.896ZM122.183 329.672C122.823 329.672 123.391 329.528 123.887 329.24C124.383 328.936 124.735 328.496 124.943 327.92V326.6H122.375C120.839 326.6 120.071 327.104 120.071 328.112C120.071 328.592 120.255 328.976 120.623 329.264C121.007 329.536 121.527 329.672 122.183 329.672ZM145.368 314.192V332H141.792V330.512C140.864 331.632 139.52 332.192 137.76 332.192C136.544 332.192 135.44 331.92 134.448 331.376C133.472 330.832 132.704 330.056 132.144 329.048C131.584 328.04 131.304 326.872 131.304 325.544C131.304 324.216 131.584 323.048 132.144 322.04C132.704 321.032 133.472 320.256 134.448 319.712C135.44 319.168 136.544 318.896 137.76 318.896C139.408 318.896 140.696 319.416 141.624 320.456V314.192H145.368ZM138.408 329.12C139.352 329.12 140.136 328.8 140.76 328.16C141.384 327.504 141.696 326.632 141.696 325.544C141.696 324.456 141.384 323.592 140.76 322.952C140.136 322.296 139.352 321.968 138.408 321.968C137.448 321.968 136.656 322.296 136.032 322.952C135.408 323.592 135.096 324.456 135.096 325.544C135.096 326.632 135.408 327.504 136.032 328.16C136.656 328.8 137.448 329.12 138.408 329.12ZM154.041 318.896C156.041 318.896 157.577 319.376 158.649 320.336C159.721 321.28 160.257 322.712 160.257 324.632V332H156.753V330.392C156.049 331.592 154.737 332.192 152.817 332.192C151.825 332.192 150.961 332.024 150.225 331.688C149.505 331.352 148.953 330.888 148.569 330.296C148.185 329.704 147.993 329.032 147.993 328.28C147.993 327.08 148.441 326.136 149.337 325.448C150.249 324.76 151.649 324.416 153.537 324.416H156.513C156.513 323.6 156.265 322.976 155.769 322.544C155.273 322.096 154.529 321.872 153.537 321.872C152.849 321.872 152.169 321.984 151.497 322.208C150.841 322.416 150.281 322.704 149.817 323.072L148.473 320.456C149.177 319.96 150.017 319.576 150.993 319.304C151.985 319.032 153.001 318.896 154.041 318.896ZM153.753 329.672C154.393 329.672 154.961 329.528 155.457 329.24C155.953 328.936 156.305 328.496 156.513 327.92V326.6H153.945C152.409 326.6 151.641 327.104 151.641 328.112C151.641 328.592 151.825 328.976 152.193 329.264C152.577 329.536 153.097 329.672 153.753 329.672ZM167.99 332.192C166.918 332.192 165.87 332.064 164.846 331.808C163.822 331.536 163.006 331.2 162.398 330.8L163.646 328.112C164.222 328.48 164.918 328.784 165.734 329.024C166.55 329.248 167.35 329.36 168.134 329.36C169.718 329.36 170.51 328.968 170.51 328.184C170.51 327.816 170.294 327.552 169.862 327.392C169.43 327.232 168.766 327.096 167.87 326.984C166.814 326.824 165.942 326.64 165.254 326.432C164.566 326.224 163.966 325.856 163.454 325.328C162.958 324.8 162.71 324.048 162.71 323.072C162.71 322.256 162.942 321.536 163.406 320.912C163.886 320.272 164.574 319.776 165.47 319.424C166.382 319.072 167.454 318.896 168.686 318.896C169.598 318.896 170.502 319 171.398 319.208C172.31 319.4 173.062 319.672 173.654 320.024L172.406 322.688C171.27 322.048 170.03 321.728 168.686 321.728C167.886 321.728 167.286 321.84 166.886 322.064C166.486 322.288 166.286 322.576 166.286 322.928C166.286 323.328 166.502 323.608 166.934 323.768C167.366 323.928 168.054 324.08 168.998 324.224C170.054 324.4 170.918 324.592 171.59 324.8C172.262 324.992 172.846 325.352 173.342 325.88C173.838 326.408 174.086 327.144 174.086 328.088C174.086 328.888 173.846 329.6 173.366 330.224C172.886 330.848 172.182 331.336 171.254 331.688C170.342 332.024 169.254 332.192 167.99 332.192ZM184.724 331.376C184.356 331.648 183.9 331.856 183.356 332C182.828 332.128 182.268 332.192 181.676 332.192C180.14 332.192 178.948 331.8 178.1 331.016C177.268 330.232 176.852 329.08 176.852 327.56V322.256H174.86V319.376H176.852V316.232H180.596V319.376H183.812V322.256H180.596V327.512C180.596 328.056 180.732 328.48 181.004 328.784C181.292 329.072 181.692 329.216 182.204 329.216C182.796 329.216 183.3 329.056 183.716 328.736L184.724 331.376ZM190.402 320.792C190.85 320.168 191.45 319.696 192.202 319.376C192.97 319.056 193.85 318.896 194.842 318.896V322.352C194.426 322.32 194.146 322.304 194.002 322.304C192.93 322.304 192.09 322.608 191.482 323.216C190.874 323.808 190.57 324.704 190.57 325.904V332H186.826V319.088H190.402V320.792ZM203.095 332.192C201.735 332.192 200.511 331.912 199.423 331.352C198.351 330.776 197.511 329.984 196.903 328.976C196.295 327.968 195.991 326.824 195.991 325.544C195.991 324.264 196.295 323.12 196.903 322.112C197.511 321.104 198.351 320.32 199.423 319.76C200.511 319.184 201.735 318.896 203.095 318.896C204.455 318.896 205.671 319.184 206.743 319.76C207.815 320.32 208.655 321.104 209.263 322.112C209.871 323.12 210.175 324.264 210.175 325.544C210.175 326.824 209.871 327.968 209.263 328.976C208.655 329.984 207.815 330.776 206.743 331.352C205.671 331.912 204.455 332.192 203.095 332.192ZM203.095 329.12C204.055 329.12 204.839 328.8 205.447 328.16C206.071 327.504 206.383 326.632 206.383 325.544C206.383 324.456 206.071 323.592 205.447 322.952C204.839 322.296 204.055 321.968 203.095 321.968C202.135 321.968 201.343 322.296 200.719 322.952C200.095 323.592 199.783 324.456 199.783 325.544C199.783 326.632 200.095 327.504 200.719 328.16C201.343 328.8 202.135 329.12 203.095 329.12ZM230.802 328.4H223.002L221.514 332H217.53L225.018 315.2H228.858L236.37 332H232.29L230.802 328.4ZM229.578 325.448L226.914 319.016L224.25 325.448H229.578ZM237.849 314.192H241.593V332H237.849V314.192ZM254.333 331.376C253.965 331.648 253.509 331.856 252.965 332C252.437 332.128 251.877 332.192 251.285 332.192C249.749 332.192 248.557 331.8 247.709 331.016C246.877 330.232 246.461 329.08 246.461 327.56V322.256H244.469V319.376H246.461V316.232H250.205V319.376H253.421V322.256H250.205V327.512C250.205 328.056 250.341 328.48 250.613 328.784C250.901 329.072 251.301 329.216 251.813 329.216C252.405 329.216 252.909 329.056 253.325 328.736L254.333 331.376ZM268.685 325.592C268.685 325.64 268.661 325.976 268.613 326.6H258.845C259.021 327.4 259.437 328.032 260.093 328.496C260.749 328.96 261.565 329.192 262.541 329.192C263.213 329.192 263.805 329.096 264.317 328.904C264.845 328.696 265.333 328.376 265.781 327.944L267.773 330.104C266.557 331.496 264.781 332.192 262.445 332.192C260.989 332.192 259.701 331.912 258.581 331.352C257.461 330.776 256.597 329.984 255.989 328.976C255.381 327.968 255.077 326.824 255.077 325.544C255.077 324.28 255.373 323.144 255.965 322.136C256.573 321.112 257.397 320.32 258.437 319.76C259.493 319.184 260.669 318.896 261.965 318.896C263.229 318.896 264.373 319.168 265.397 319.712C266.421 320.256 267.221 321.04 267.797 322.064C268.389 323.072 268.685 324.248 268.685 325.592ZM261.989 321.728C261.141 321.728 260.429 321.968 259.853 322.448C259.277 322.928 258.925 323.584 258.797 324.416H265.157C265.029 323.6 264.677 322.952 264.101 322.472C263.525 321.976 262.821 321.728 261.989 321.728ZM274.753 320.792C275.201 320.168 275.801 319.696 276.553 319.376C277.321 319.056 278.201 318.896 279.193 318.896V322.352C278.777 322.32 278.497 322.304 278.353 322.304C277.281 322.304 276.441 322.608 275.833 323.216C275.225 323.808 274.921 324.704 274.921 325.904V332H271.177V319.088H274.753V320.792ZM286.557 318.896C288.557 318.896 290.093 319.376 291.165 320.336C292.237 321.28 292.773 322.712 292.773 324.632V332H289.269V330.392C288.565 331.592 287.253 332.192 285.333 332.192C284.341 332.192 283.477 332.024 282.741 331.688C282.021 331.352 281.469 330.888 281.085 330.296C280.701 329.704 280.509 329.032 280.509 328.28C280.509 327.08 280.957 326.136 281.853 325.448C282.765 324.76 284.165 324.416 286.053 324.416H289.029C289.029 323.6 288.781 322.976 288.285 322.544C287.789 322.096 287.045 321.872 286.053 321.872C285.365 321.872 284.685 321.984 284.013 322.208C283.357 322.416 282.797 322.704 282.333 323.072L280.989 320.456C281.693 319.96 282.533 319.576 283.509 319.304C284.501 319.032 285.517 318.896 286.557 318.896ZM286.269 329.672C286.909 329.672 287.477 329.528 287.973 329.24C288.469 328.936 288.821 328.496 289.029 327.92V326.6H286.461C284.925 326.6 284.157 327.104 284.157 328.112C284.157 328.592 284.341 328.976 284.709 329.264C285.093 329.536 285.613 329.672 286.269 329.672ZM309.454 314.192V332H305.878V330.512C304.95 331.632 303.606 332.192 301.846 332.192C300.63 332.192 299.526 331.92 298.534 331.376C297.558 330.832 296.79 330.056 296.23 329.048C295.67 328.04 295.39 326.872 295.39 325.544C295.39 324.216 295.67 323.048 296.23 322.04C296.79 321.032 297.558 320.256 298.534 319.712C299.526 319.168 300.63 318.896 301.846 318.896C303.494 318.896 304.782 319.416 305.71 320.456V314.192H309.454ZM302.494 329.12C303.438 329.12 304.222 328.8 304.846 328.16C305.47 327.504 305.782 326.632 305.782 325.544C305.782 324.456 305.47 323.592 304.846 322.952C304.222 322.296 303.438 321.968 302.494 321.968C301.534 321.968 300.742 322.296 300.118 322.952C299.494 323.592 299.182 324.456 299.182 325.544C299.182 326.632 299.494 327.504 300.118 328.16C300.742 328.8 301.534 329.12 302.494 329.12ZM319.063 332.192C317.703 332.192 316.479 331.912 315.391 331.352C314.319 330.776 313.479 329.984 312.871 328.976C312.263 327.968 311.959 326.824 311.959 325.544C311.959 324.264 312.263 323.12 312.871 322.112C313.479 321.104 314.319 320.32 315.391 319.76C316.479 319.184 317.703 318.896 319.063 318.896C320.423 318.896 321.639 319.184 322.711 319.76C323.783 320.32 324.623 321.104 325.231 322.112C325.839 323.12 326.143 324.264 326.143 325.544C326.143 326.824 325.839 327.968 325.231 328.976C324.623 329.984 323.783 330.776 322.711 331.352C321.639 331.912 320.423 332.192 319.063 332.192ZM319.063 329.12C320.023 329.12 320.807 328.8 321.415 328.16C322.039 327.504 322.351 326.632 322.351 325.544C322.351 324.456 322.039 323.592 321.415 322.952C320.807 322.296 320.023 321.968 319.063 321.968C318.103 321.968 317.311 322.296 316.687 322.952C316.063 323.592 315.751 324.456 315.751 325.544C315.751 326.632 316.063 327.504 316.687 328.16C317.311 328.8 318.103 329.12 319.063 329.12ZM341.683 332.192C340.307 332.192 339.067 331.912 337.963 331.352C336.875 330.776 336.019 329.984 335.395 328.976C334.787 327.968 334.483 326.824 334.483 325.544C334.483 324.264 334.787 323.12 335.395 322.112C336.019 321.104 336.875 320.32 337.963 319.76C339.067 319.184 340.307 318.896 341.683 318.896C343.043 318.896 344.227 319.184 345.235 319.76C346.259 320.32 347.003 321.128 347.467 322.184L344.563 323.744C343.891 322.56 342.923 321.968 341.659 321.968C340.683 321.968 339.875 322.288 339.235 322.928C338.595 323.568 338.275 324.44 338.275 325.544C338.275 326.648 338.595 327.52 339.235 328.16C339.875 328.8 340.683 329.12 341.659 329.12C342.939 329.12 343.907 328.528 344.563 327.344L347.467 328.928C347.003 329.952 346.259 330.752 345.235 331.328C344.227 331.904 343.043 332.192 341.683 332.192ZM355.602 332.192C354.242 332.192 353.018 331.912 351.93 331.352C350.858 330.776 350.018 329.984 349.41 328.976C348.802 327.968 348.498 326.824 348.498 325.544C348.498 324.264 348.802 323.12 349.41 322.112C350.018 321.104 350.858 320.32 351.93 319.76C353.018 319.184 354.242 318.896 355.602 318.896C356.962 318.896 358.178 319.184 359.25 319.76C360.322 320.32 361.162 321.104 361.77 322.112C362.378 323.12 362.682 324.264 362.682 325.544C362.682 326.824 362.378 327.968 361.77 328.976C361.162 329.984 360.322 330.776 359.25 331.352C358.178 331.912 356.962 332.192 355.602 332.192ZM355.602 329.12C356.562 329.12 357.346 328.8 357.954 328.16C358.578 327.504 358.89 326.632 358.89 325.544C358.89 324.456 358.578 323.592 357.954 322.952C357.346 322.296 356.562 321.968 355.602 321.968C354.642 321.968 353.85 322.296 353.226 322.952C352.602 323.592 352.29 324.456 352.29 325.544C352.29 326.632 352.602 327.504 353.226 328.16C353.85 328.8 354.642 329.12 355.602 329.12ZM381.721 318.896C383.337 318.896 384.617 319.376 385.561 320.336C386.521 321.28 387.001 322.704 387.001 324.608V332H383.257V325.184C383.257 324.16 383.041 323.4 382.609 322.904C382.193 322.392 381.593 322.136 380.809 322.136C379.929 322.136 379.233 322.424 378.721 323C378.209 323.56 377.953 324.4 377.953 325.52V332H374.209V325.184C374.209 323.152 373.393 322.136 371.761 322.136C370.897 322.136 370.209 322.424 369.697 323C369.185 323.56 368.929 324.4 368.929 325.52V332H365.185V319.088H368.761V320.576C369.241 320.032 369.825 319.616 370.513 319.328C371.217 319.04 371.985 318.896 372.817 318.896C373.729 318.896 374.553 319.08 375.289 319.448C376.025 319.8 376.617 320.32 377.065 321.008C377.593 320.336 378.257 319.816 379.057 319.448C379.873 319.08 380.761 318.896 381.721 318.896ZM401.498 332.192C400.426 332.192 399.378 332.064 398.354 331.808C397.33 331.536 396.514 331.2 395.906 330.8L397.154 328.112C397.73 328.48 398.426 328.784 399.242 329.024C400.058 329.248 400.858 329.36 401.642 329.36C403.226 329.36 404.018 328.968 404.018 328.184C404.018 327.816 403.802 327.552 403.37 327.392C402.938 327.232 402.274 327.096 401.378 326.984C400.322 326.824 399.45 326.64 398.762 326.432C398.074 326.224 397.474 325.856 396.962 325.328C396.466 324.8 396.218 324.048 396.218 323.072C396.218 322.256 396.45 321.536 396.914 320.912C397.394 320.272 398.082 319.776 398.978 319.424C399.89 319.072 400.962 318.896 402.194 318.896C403.106 318.896 404.01 319 404.906 319.208C405.818 319.4 406.57 319.672 407.162 320.024L405.914 322.688C404.778 322.048 403.538 321.728 402.194 321.728C401.394 321.728 400.794 321.84 400.394 322.064C399.994 322.288 399.794 322.576 399.794 322.928C399.794 323.328 400.01 323.608 400.442 323.768C400.874 323.928 401.562 324.08 402.506 324.224C403.562 324.4 404.426 324.592 405.098 324.8C405.77 324.992 406.354 325.352 406.85 325.88C407.346 326.408 407.594 327.144 407.594 328.088C407.594 328.888 407.354 329.6 406.874 330.224C406.394 330.848 405.69 331.336 404.762 331.688C403.85 332.024 402.762 332.192 401.498 332.192ZM422.912 319.088V332H419.36V330.464C418.864 331.024 418.272 331.456 417.584 331.76C416.896 332.048 416.152 332.192 415.352 332.192C413.656 332.192 412.312 331.704 411.32 330.728C410.328 329.752 409.832 328.304 409.832 326.384V319.088H413.576V325.832C413.576 327.912 414.448 328.952 416.192 328.952C417.088 328.952 417.808 328.664 418.352 328.088C418.896 327.496 419.168 326.624 419.168 325.472V319.088H422.912ZM432.62 332.192C431.244 332.192 430.004 331.912 428.9 331.352C427.812 330.776 426.956 329.984 426.332 328.976C425.724 327.968 425.42 326.824 425.42 325.544C425.42 324.264 425.724 323.12 426.332 322.112C426.956 321.104 427.812 320.32 428.9 319.76C430.004 319.184 431.244 318.896 432.62 318.896C433.98 318.896 435.164 319.184 436.172 319.76C437.196 320.32 437.94 321.128 438.404 322.184L435.5 323.744C434.828 322.56 433.86 321.968 432.596 321.968C431.62 321.968 430.812 322.288 430.172 322.928C429.532 323.568 429.212 324.44 429.212 325.544C429.212 326.648 429.532 327.52 430.172 328.16C430.812 328.8 431.62 329.12 432.596 329.12C433.876 329.12 434.844 328.528 435.5 327.344L438.404 328.928C437.94 329.952 437.196 330.752 436.172 331.328C435.164 331.904 433.98 332.192 432.62 332.192ZM453.044 325.592C453.044 325.64 453.02 325.976 452.972 326.6H443.204C443.38 327.4 443.796 328.032 444.452 328.496C445.108 328.96 445.924 329.192 446.9 329.192C447.572 329.192 448.164 329.096 448.676 328.904C449.204 328.696 449.692 328.376 450.14 327.944L452.132 330.104C450.916 331.496 449.14 332.192 446.804 332.192C445.348 332.192 444.06 331.912 442.94 331.352C441.82 330.776 440.956 329.984 440.348 328.976C439.74 327.968 439.436 326.824 439.436 325.544C439.436 324.28 439.732 323.144 440.324 322.136C440.932 321.112 441.756 320.32 442.796 319.76C443.852 319.184 445.028 318.896 446.324 318.896C447.588 318.896 448.732 319.168 449.756 319.712C450.78 320.256 451.58 321.04 452.156 322.064C452.748 323.072 453.044 324.248 453.044 325.592ZM446.348 321.728C445.5 321.728 444.788 321.968 444.212 322.448C443.636 322.928 443.284 323.584 443.156 324.416H449.516C449.388 323.6 449.036 322.952 448.46 322.472C447.884 321.976 447.18 321.728 446.348 321.728ZM459.881 332.192C458.809 332.192 457.761 332.064 456.737 331.808C455.713 331.536 454.897 331.2 454.289 330.8L455.537 328.112C456.113 328.48 456.809 328.784 457.625 329.024C458.441 329.248 459.241 329.36 460.025 329.36C461.609 329.36 462.401 328.968 462.401 328.184C462.401 327.816 462.185 327.552 461.753 327.392C461.321 327.232 460.657 327.096 459.761 326.984C458.705 326.824 457.833 326.64 457.145 326.432C456.457 326.224 455.857 325.856 455.345 325.328C454.849 324.8 454.601 324.048 454.601 323.072C454.601 322.256 454.833 321.536 455.297 320.912C455.777 320.272 456.465 319.776 457.361 319.424C458.273 319.072 459.345 318.896 460.577 318.896C461.489 318.896 462.393 319 463.289 319.208C464.201 319.4 464.953 319.672 465.545 320.024L464.297 322.688C463.161 322.048 461.921 321.728 460.577 321.728C459.777 321.728 459.177 321.84 458.777 322.064C458.377 322.288 458.177 322.576 458.177 322.928C458.177 323.328 458.393 323.608 458.825 323.768C459.257 323.928 459.945 324.08 460.889 324.224C461.945 324.4 462.809 324.592 463.481 324.8C464.153 324.992 464.737 325.352 465.233 325.88C465.729 326.408 465.977 327.144 465.977 328.088C465.977 328.888 465.737 329.6 465.257 330.224C464.777 330.848 464.073 331.336 463.145 331.688C462.233 332.024 461.145 332.192 459.881 332.192ZM472.631 332.192C471.559 332.192 470.511 332.064 469.487 331.808C468.463 331.536 467.647 331.2 467.039 330.8L468.287 328.112C468.863 328.48 469.559 328.784 470.375 329.024C471.191 329.248 471.991 329.36 472.775 329.36C474.359 329.36 475.151 328.968 475.151 328.184C475.151 327.816 474.935 327.552 474.503 327.392C474.071 327.232 473.407 327.096 472.511 326.984C471.455 326.824 470.583 326.64 469.895 326.432C469.207 326.224 468.607 325.856 468.095 325.328C467.599 324.8 467.351 324.048 467.351 323.072C467.351 322.256 467.583 321.536 468.047 320.912C468.527 320.272 469.215 319.776 470.111 319.424C471.023 319.072 472.095 318.896 473.327 318.896C474.239 318.896 475.143 319 476.039 319.208C476.951 319.4 477.703 319.672 478.295 320.024L477.047 322.688C475.911 322.048 474.671 321.728 473.327 321.728C472.527 321.728 471.927 321.84 471.527 322.064C471.127 322.288 470.927 322.576 470.927 322.928C470.927 323.328 471.143 323.608 471.575 323.768C472.007 323.928 472.695 324.08 473.639 324.224C474.695 324.4 475.559 324.592 476.231 324.8C476.903 324.992 477.487 325.352 477.983 325.88C478.479 326.408 478.727 327.144 478.727 328.088C478.727 328.888 478.487 329.6 478.007 330.224C477.527 330.848 476.823 331.336 475.895 331.688C474.983 332.024 473.895 332.192 472.631 332.192ZM487.181 332.192C485.821 332.192 484.597 331.912 483.509 331.352C482.437 330.776 481.597 329.984 480.989 328.976C480.381 327.968 480.077 326.824 480.077 325.544C480.077 324.264 480.381 323.12 480.989 322.112C481.597 321.104 482.437 320.32 483.509 319.76C484.597 319.184 485.821 318.896 487.181 318.896C488.541 318.896 489.757 319.184 490.829 319.76C491.901 320.32 492.741 321.104 493.349 322.112C493.957 323.12 494.261 324.264 494.261 325.544C494.261 326.824 493.957 327.968 493.349 328.976C492.741 329.984 491.901 330.776 490.829 331.352C489.757 331.912 488.541 332.192 487.181 332.192ZM487.181 329.12C488.141 329.12 488.925 328.8 489.533 328.16C490.157 327.504 490.469 326.632 490.469 325.544C490.469 324.456 490.157 323.592 489.533 322.952C488.925 322.296 488.141 321.968 487.181 321.968C486.221 321.968 485.429 322.296 484.805 322.952C484.181 323.592 483.869 324.456 483.869 325.544C483.869 326.632 484.181 327.504 484.805 328.16C485.429 328.8 486.221 329.12 487.181 329.12ZM496.283 315.2H500.747L500.003 326.168H497.027L496.283 315.2ZM498.515 332.192C497.859 332.192 497.307 331.984 496.859 331.568C496.427 331.136 496.211 330.616 496.211 330.008C496.211 329.4 496.427 328.896 496.859 328.496C497.291 328.08 497.843 327.872 498.515 327.872C499.187 327.872 499.739 328.08 500.171 328.496C500.603 328.896 500.819 329.4 500.819 330.008C500.819 330.616 500.595 331.136 500.147 331.568C499.715 331.984 499.171 332.192 498.515 332.192Z" fill="#343447"/>
<path fill-rule="evenodd" clip-rule="evenodd" d="M323.345 214.636C324.474 215.559 324.576 217.151 323.572 218.19L294.379 248.396C293.86 248.934 293.115 249.241 292.333 249.241C291.552 249.241 290.807 248.934 290.288 248.396L275.691 233.293C274.687 232.254 274.789 230.663 275.919 229.739C277.048 228.816 278.778 228.909 279.782 229.948L292.333 242.935L319.481 214.845C320.485 213.806 322.215 213.712 323.345 214.636Z" fill="#0E8750"/>
<circle cx="300" cy="232" r="50" stroke="#0E8750" stroke-width="4"/>
</svg>
