<svg width="192" height="35" viewBox="0 0 192 35" fill="none" xmlns="http://www.w3.org/2000/svg">
<path d="M11.3337 27.0355H22.667C24.1398 27.0355 25.3337 25.8416 25.3337 24.3688V13.3688L19.667 7.70215H11.3337C9.8609 7.70215 8.66699 8.89605 8.66699 10.3688V24.3688C8.66699 25.8416 9.8609 27.0355 11.3337 27.0355Z" stroke="#3F3F55" stroke-width="1.5" stroke-linecap="round" stroke-linejoin="round"/>
<path d="M24.9997 13.7028H19.333V8.03613" stroke="#3F3F55" stroke-width="1.5" stroke-linecap="round" stroke-linejoin="round"/>
<path d="M59.868 26.6291C58.0307 26.6291 56.3667 26.2305 54.876 25.4331C53.4027 24.6185 52.2413 23.5005 51.392 22.0791C50.56 20.6578 50.144 19.0545 50.144 17.2691C50.144 15.4838 50.5687 13.8805 51.418 12.4591C52.2673 11.0378 53.4287 9.92847 54.902 9.13114C56.3927 8.31647 58.0567 7.90914 59.894 7.90914C61.3847 7.90914 62.7453 8.16914 63.976 8.68914C65.2067 9.20914 66.2467 9.96314 67.096 10.9511L64.912 13.0051C63.5947 11.5838 61.974 10.8731 60.05 10.8731C58.802 10.8731 57.684 11.1505 56.696 11.7051C55.708 12.2425 54.9367 12.9965 54.382 13.9671C53.8273 14.9378 53.55 16.0385 53.55 17.2691C53.55 18.4998 53.8273 19.6005 54.382 20.5711C54.9367 21.5418 55.708 22.3045 56.696 22.8591C57.684 23.3965 58.802 23.6651 60.05 23.6651C61.974 23.6651 63.5947 22.9458 64.912 21.5071L67.096 23.5871C66.2467 24.5751 65.198 25.3291 63.95 25.8491C62.7193 26.3691 61.3587 26.6291 59.868 26.6291ZM75.7548 26.5511C74.3508 26.5511 73.0855 26.2478 71.9588 25.6411C70.8321 25.0345 69.9481 24.1938 69.3068 23.1191C68.6828 22.0271 68.3708 20.7965 68.3708 19.4271C68.3708 18.0578 68.6828 16.8358 69.3068 15.7611C69.9481 14.6865 70.8321 13.8458 71.9588 13.2391C73.0855 12.6325 74.3508 12.3291 75.7548 12.3291C77.1761 12.3291 78.4501 12.6325 79.5768 13.2391C80.7035 13.8458 81.5788 14.6865 82.2028 15.7611C82.8441 16.8358 83.1648 18.0578 83.1648 19.4271C83.1648 20.7965 82.8441 22.0271 82.2028 23.1191C81.5788 24.1938 80.7035 25.0345 79.5768 25.6411C78.4501 26.2478 77.1761 26.5511 75.7548 26.5511ZM75.7548 23.7691C76.9508 23.7691 77.9388 23.3705 78.7188 22.5731C79.4988 21.7758 79.8888 20.7271 79.8888 19.4271C79.8888 18.1271 79.4988 17.0785 78.7188 16.2811C77.9388 15.4838 76.9508 15.0851 75.7548 15.0851C74.5588 15.0851 73.5708 15.4838 72.7908 16.2811C72.0281 17.0785 71.6468 18.1271 71.6468 19.4271C71.6468 20.7271 72.0281 21.7758 72.7908 22.5731C73.5708 23.3705 74.5588 23.7691 75.7548 23.7691ZM93.9686 12.3291C95.3206 12.3291 96.5253 12.6238 97.5826 13.2131C98.6573 13.8025 99.498 14.6345 100.105 15.7091C100.711 16.7838 101.015 18.0231 101.015 19.4271C101.015 20.8311 100.711 22.0791 100.105 23.1711C99.498 24.2458 98.6573 25.0778 97.5826 25.6671C96.5253 26.2565 95.3206 26.5511 93.9686 26.5511C93.0153 26.5511 92.14 26.3865 91.3426 26.0571C90.5626 25.7278 89.904 25.2338 89.3666 24.5751V26.3691H86.2726V7.07714H89.5226V14.1751C90.0773 13.5685 90.7273 13.1091 91.4726 12.7971C92.2353 12.4851 93.0673 12.3291 93.9686 12.3291ZM93.6046 23.7691C94.8006 23.7691 95.78 23.3705 96.5426 22.5731C97.3226 21.7758 97.7126 20.7271 97.7126 19.4271C97.7126 18.1271 97.3226 17.0785 96.5426 16.2811C95.78 15.4838 94.8006 15.0851 93.6046 15.0851C92.8246 15.0851 92.1226 15.2671 91.4986 15.6311C90.8746 15.9778 90.3806 16.4805 90.0166 17.1391C89.6526 17.7978 89.4706 18.5605 89.4706 19.4271C89.4706 20.2938 89.6526 21.0565 90.0166 21.7151C90.3806 22.3738 90.8746 22.8851 91.4986 23.2491C92.1226 23.5958 92.8246 23.7691 93.6046 23.7691ZM107.191 14.5131C108.127 13.0571 109.774 12.3291 112.131 12.3291V15.4231C111.854 15.3711 111.602 15.3451 111.377 15.3451C110.112 15.3451 109.124 15.7178 108.413 16.4631C107.702 17.1911 107.347 18.2485 107.347 19.6351V26.3691H104.097V12.4851H107.191V14.5131ZM120.116 12.3291C122.161 12.3291 123.721 12.8231 124.796 13.8111C125.888 14.7818 126.434 16.2551 126.434 18.2311V26.3691H123.366V24.6791C122.967 25.2858 122.395 25.7538 121.65 26.0831C120.922 26.3951 120.038 26.5511 118.998 26.5511C117.958 26.5511 117.048 26.3778 116.268 26.0311C115.488 25.6671 114.881 25.1731 114.448 24.5491C114.032 23.9078 113.824 23.1885 113.824 22.3911C113.824 21.1431 114.283 20.1465 115.202 19.4011C116.138 18.6385 117.602 18.2571 119.596 18.2571H123.184V18.0491C123.184 17.0785 122.889 16.3331 122.3 15.8131C121.728 15.2931 120.87 15.0331 119.726 15.0331C118.946 15.0331 118.174 15.1545 117.412 15.3971C116.666 15.6398 116.034 15.9778 115.514 16.4111L114.24 14.0451C114.968 13.4905 115.843 13.0658 116.866 12.7711C117.888 12.4765 118.972 12.3291 120.116 12.3291ZM119.674 24.1851C120.488 24.1851 121.208 24.0031 121.832 23.6391C122.473 23.2578 122.924 22.7205 123.184 22.0271V20.4151H119.83C117.958 20.4151 117.022 21.0305 117.022 22.2611C117.022 22.8505 117.256 23.3185 117.724 23.6651C118.192 24.0118 118.842 24.1851 119.674 24.1851ZM138.483 12.3291C140.233 12.3291 141.637 12.8405 142.695 13.8631C143.752 14.8858 144.281 16.4025 144.281 18.4131V26.3691H141.031V18.8291C141.031 17.6158 140.745 16.7058 140.173 16.0991C139.601 15.4751 138.786 15.1631 137.729 15.1631C136.533 15.1631 135.588 15.5271 134.895 16.2551C134.201 16.9658 133.855 17.9971 133.855 19.3491V26.3691H130.605V12.4851H133.699V14.2791C134.236 13.6378 134.912 13.1525 135.727 12.8231C136.541 12.4938 137.46 12.3291 138.483 12.3291ZM154.9 26.5511C153.462 26.5511 152.17 26.2478 151.026 25.6411C149.882 25.0345 148.99 24.1938 148.348 23.1191C147.707 22.0271 147.386 20.7965 147.386 19.4271C147.386 18.0578 147.707 16.8358 148.348 15.7611C148.99 14.6865 149.874 13.8458 151 13.2391C152.144 12.6325 153.444 12.3291 154.9 12.3291C156.27 12.3291 157.466 12.6065 158.488 13.1611C159.528 13.7158 160.308 14.5131 160.828 15.5531L158.332 17.0091C157.934 16.3678 157.431 15.8911 156.824 15.5791C156.235 15.2498 155.585 15.0851 154.874 15.0851C153.661 15.0851 152.656 15.4838 151.858 16.2811C151.061 17.0611 150.662 18.1098 150.662 19.4271C150.662 20.7445 151.052 21.8018 151.832 22.5991C152.63 23.3791 153.644 23.7691 154.874 23.7691C155.585 23.7691 156.235 23.6131 156.824 23.3011C157.431 22.9718 157.934 22.4865 158.332 21.8451L160.828 23.3011C160.291 24.3411 159.502 25.1471 158.462 25.7191C157.44 26.2738 156.252 26.5511 154.9 26.5511ZM153.548 32.2971C152.612 32.2971 151.815 32.1151 151.156 31.7511L151.754 30.2171C152.292 30.4945 152.881 30.6331 153.522 30.6331C154.441 30.6331 154.9 30.3211 154.9 29.6971C154.9 29.4371 154.788 29.2291 154.562 29.0731C154.337 28.9171 153.99 28.8391 153.522 28.8391H152.716L153.418 26.1871H155.186L154.822 27.6431C155.568 27.7298 156.131 27.9638 156.512 28.3451C156.894 28.7438 157.084 29.2378 157.084 29.8271C157.084 30.5725 156.764 31.1705 156.122 31.6211C155.481 32.0718 154.623 32.2971 153.548 32.2971ZM168.942 12.3291C170.987 12.3291 172.547 12.8231 173.622 13.8111C174.714 14.7818 175.26 16.2551 175.26 18.2311V26.3691H172.192V24.6791C171.793 25.2858 171.221 25.7538 170.476 26.0831C169.748 26.3951 168.864 26.5511 167.824 26.5511C166.784 26.5511 165.874 26.3778 165.094 26.0311C164.314 25.6671 163.707 25.1731 163.274 24.5491C162.858 23.9078 162.65 23.1885 162.65 22.3911C162.65 21.1431 163.109 20.1465 164.028 19.4011C164.964 18.6385 166.429 18.2571 168.422 18.2571H172.01V18.0491C172.01 17.0785 171.715 16.3331 171.126 15.8131C170.554 15.2931 169.696 15.0331 168.552 15.0331C167.772 15.0331 167.001 15.1545 166.238 15.3971C165.493 15.6398 164.86 15.9778 164.34 16.4111L163.066 14.0451C163.794 13.4905 164.669 13.0658 165.692 12.7711C166.715 12.4765 167.798 12.3291 168.942 12.3291ZM168.5 24.1851C169.315 24.1851 170.034 24.0031 170.658 23.6391C171.299 23.2578 171.75 22.7205 172.01 22.0271V20.4151H168.656C166.784 20.4151 165.848 21.0305 165.848 22.2611C165.848 22.8505 166.082 23.3185 166.55 23.6651C167.018 24.0118 167.668 24.1851 168.5 24.1851ZM183.721 26.5511C182.594 26.5511 181.493 26.4038 180.419 26.1091C179.344 25.8145 178.486 25.4418 177.845 24.9911L179.093 22.5211C179.717 22.9371 180.462 23.2751 181.329 23.5351C182.213 23.7778 183.079 23.8991 183.929 23.8991C185.87 23.8991 186.841 23.3878 186.841 22.3651C186.841 21.8798 186.589 21.5418 186.087 21.3511C185.601 21.1605 184.813 20.9785 183.721 20.8051C182.577 20.6318 181.641 20.4325 180.913 20.2071C180.202 19.9818 179.578 19.5918 179.041 19.0371C178.521 18.4651 178.261 17.6765 178.261 16.6711C178.261 15.3538 178.807 14.3051 179.899 13.5251C181.008 12.7278 182.499 12.3291 184.371 12.3291C185.324 12.3291 186.277 12.4418 187.231 12.6671C188.184 12.8751 188.964 13.1611 189.571 13.5251L188.323 15.9951C187.144 15.3018 185.818 14.9551 184.345 14.9551C183.391 14.9551 182.663 15.1025 182.161 15.3971C181.675 15.6745 181.433 16.0471 181.433 16.5151C181.433 17.0351 181.693 17.4078 182.213 17.6331C182.75 17.8411 183.573 18.0405 184.683 18.2311C185.792 18.4045 186.702 18.6038 187.413 18.8291C188.123 19.0545 188.73 19.4358 189.233 19.9731C189.753 20.5105 190.013 21.2731 190.013 22.2611C190.013 23.5611 189.449 24.6011 188.323 25.3811C187.196 26.1611 185.662 26.5511 183.721 26.5511Z" fill="#3F3F55"/>
</svg>
