<svg width="150" height="23" viewBox="0 0 150 23" fill="none" xmlns="http://www.w3.org/2000/svg">
<path d="M2.20852 21.6665H12.124C12.8767 21.6665 13.469 21.0421 13.319 20.3045C12.905 18.2681 11.5526 14.6665 7.16628 14.6665C2.78003 14.6665 1.42768 18.2681 1.0136 20.3045C0.863618 21.0421 1.45586 21.6665 2.20852 21.6665Z" stroke="#3F3F55" stroke-width="1.5" stroke-linecap="round" stroke-linejoin="round"/>
<path d="M15.5 14.6665C18.2717 14.6665 19.4069 17.5304 19.8652 19.5945C20.1127 20.7092 19.2111 21.6665 18.0692 21.6665H16.8333" stroke="#3F3F55" stroke-width="1.5" stroke-linecap="round" stroke-linejoin="round"/>
<path d="M7.16667 9.66683C9.19171 9.66683 10.8333 8.02521 10.8333 6.00016C10.8333 3.97512 9.19171 2.3335 7.16667 2.3335C5.14162 2.3335 3.5 3.97512 3.5 6.00016C3.5 8.02521 5.14162 9.66683 7.16667 9.66683Z" stroke="#3F3F55" stroke-width="1.5" stroke-linecap="round" stroke-linejoin="round"/>
<path d="M53.368 21.26C51.5307 21.26 49.8667 20.8613 48.376 20.064C46.9027 19.2493 45.7413 18.1313 44.892 16.71C44.06 15.2887 43.644 13.6853 43.644 11.9C43.644 10.1147 44.0687 8.51133 44.918 7.09C45.7673 5.66867 46.9287 4.55933 48.402 3.762C49.8927 2.94733 51.5567 2.54 53.394 2.54C54.8847 2.54 56.2453 2.8 57.476 3.32C58.7067 3.84 59.7467 4.594 60.596 5.582L58.412 7.636C57.0947 6.21467 55.474 5.504 53.55 5.504C52.302 5.504 51.184 5.78133 50.196 6.336C49.208 6.87333 48.4367 7.62733 47.882 8.598C47.3273 9.56867 47.05 10.6693 47.05 11.9C47.05 13.1307 47.3273 14.2313 47.882 15.202C48.4367 16.1727 49.208 16.9353 50.196 17.49C51.184 18.0273 52.302 18.296 53.55 18.296C55.474 18.296 57.0947 17.5767 58.412 16.138L60.596 18.218C59.7467 19.206 58.698 19.96 57.45 20.48C56.2193 21 54.8587 21.26 53.368 21.26ZM63.5226 1.708H66.7726V21H63.5226V1.708ZM71.0383 7.116H74.2883V21H71.0383V7.116ZM72.6763 4.828C72.0869 4.828 71.5929 4.646 71.1943 4.282C70.7956 3.90067 70.5963 3.43267 70.5963 2.878C70.5963 2.32333 70.7956 1.864 71.1943 1.5C71.5929 1.11867 72.0869 0.928 72.6763 0.928C73.2656 0.928 73.7596 1.11 74.1583 1.474C74.5569 1.82067 74.7563 2.26267 74.7563 2.8C74.7563 3.372 74.5569 3.85733 74.1583 4.256C73.7769 4.63733 73.2829 4.828 72.6763 4.828ZM91.6059 14.136C91.6059 14.3613 91.5885 14.682 91.5539 15.098H80.6599C80.8505 16.1207 81.3445 16.9353 82.1419 17.542C82.9565 18.1313 83.9619 18.426 85.1579 18.426C86.6832 18.426 87.9399 17.9233 88.9279 16.918L90.6699 18.92C90.0459 19.6653 89.2572 20.2287 88.3039 20.61C87.3505 20.9913 86.2759 21.182 85.0799 21.182C83.5545 21.182 82.2112 20.8787 81.0499 20.272C79.8885 19.6653 78.9872 18.8247 78.3459 17.75C77.7219 16.658 77.4099 15.4273 77.4099 14.058C77.4099 12.706 77.7132 11.4927 78.3199 10.418C78.9439 9.326 79.8019 8.47667 80.8939 7.87C81.9859 7.26333 83.2165 6.96 84.5859 6.96C85.9379 6.96 87.1425 7.26333 88.1999 7.87C89.2745 8.45933 90.1065 9.3 90.6959 10.392C91.3025 11.4667 91.6059 12.7147 91.6059 14.136ZM84.5859 9.56C83.5459 9.56 82.6619 9.872 81.9339 10.496C81.2232 11.1027 80.7899 11.9173 80.6339 12.94H88.5119C88.3732 11.9347 87.9485 11.12 87.2379 10.496C86.5272 9.872 85.6432 9.56 84.5859 9.56ZM102.606 6.96C104.356 6.96 105.76 7.47133 106.818 8.494C107.875 9.51667 108.404 11.0333 108.404 13.044V21H105.154V13.46C105.154 12.2467 104.868 11.3367 104.296 10.73C103.724 10.106 102.909 9.794 101.852 9.794C100.656 9.794 99.711 10.158 99.0177 10.886C98.3244 11.5967 97.9777 12.628 97.9777 13.98V21H94.7277V7.116H97.8217V8.91C98.359 8.26867 99.035 7.78333 99.8497 7.454C100.664 7.12467 101.583 6.96 102.606 6.96ZM120.873 20.246C120.491 20.558 120.023 20.792 119.469 20.948C118.931 21.104 118.359 21.182 117.753 21.182C116.227 21.182 115.049 20.7833 114.217 19.986C113.385 19.1887 112.969 18.0273 112.969 16.502V9.82H110.681V7.22H112.969V4.048H116.219V7.22H119.937V9.82H116.219V16.424C116.219 17.1 116.383 17.62 116.713 17.984C117.042 18.3307 117.519 18.504 118.143 18.504C118.871 18.504 119.477 18.3133 119.963 17.932L120.873 20.246ZM136.141 14.136C136.141 14.3613 136.124 14.682 136.089 15.098H125.195C125.386 16.1207 125.88 16.9353 126.677 17.542C127.492 18.1313 128.497 18.426 129.693 18.426C131.218 18.426 132.475 17.9233 133.463 16.918L135.205 18.92C134.581 19.6653 133.792 20.2287 132.839 20.61C131.886 20.9913 130.811 21.182 129.615 21.182C128.09 21.182 126.746 20.8787 125.585 20.272C124.424 19.6653 123.522 18.8247 122.881 17.75C122.257 16.658 121.945 15.4273 121.945 14.058C121.945 12.706 122.248 11.4927 122.855 10.418C123.479 9.326 124.337 8.47667 125.429 7.87C126.521 7.26333 127.752 6.96 129.121 6.96C130.473 6.96 131.678 7.26333 132.735 7.87C133.81 8.45933 134.642 9.3 135.231 10.392C135.838 11.4667 136.141 12.7147 136.141 14.136ZM129.121 9.56C128.081 9.56 127.197 9.872 126.469 10.496C125.758 11.1027 125.325 11.9173 125.169 12.94H133.047C132.908 11.9347 132.484 11.12 131.773 10.496C131.062 9.872 130.178 9.56 129.121 9.56ZM143.553 21.182C142.426 21.182 141.326 21.0347 140.251 20.74C139.176 20.4453 138.318 20.0727 137.677 19.622L138.925 17.152C139.549 17.568 140.294 17.906 141.161 18.166C142.045 18.4087 142.912 18.53 143.761 18.53C145.702 18.53 146.673 18.0187 146.673 16.996C146.673 16.5107 146.422 16.1727 145.919 15.982C145.434 15.7913 144.645 15.6093 143.553 15.436C142.409 15.2627 141.473 15.0633 140.745 14.838C140.034 14.6127 139.41 14.2227 138.873 13.668C138.353 13.096 138.093 12.3073 138.093 11.302C138.093 9.98467 138.639 8.936 139.731 8.156C140.84 7.35867 142.331 6.96 144.203 6.96C145.156 6.96 146.11 7.07267 147.063 7.298C148.016 7.506 148.796 7.792 149.403 8.156L148.155 10.626C146.976 9.93267 145.65 9.586 144.177 9.586C143.224 9.586 142.496 9.73333 141.993 10.028C141.508 10.3053 141.265 10.678 141.265 11.146C141.265 11.666 141.525 12.0387 142.045 12.264C142.582 12.472 143.406 12.6713 144.515 12.862C145.624 13.0353 146.534 13.2347 147.245 13.46C147.956 13.6853 148.562 14.0667 149.065 14.604C149.585 15.1413 149.845 15.904 149.845 16.892C149.845 18.192 149.282 19.232 148.155 20.012C147.028 20.792 145.494 21.182 143.553 21.182Z" fill="#3F3F55"/>
</svg>
