<svg width="600" height="513" viewBox="0 0 600 513" fill="none" xmlns="http://www.w3.org/2000/svg">
<rect y="0.5" width="600" height="512" rx="30" fill="#F0F0F5"/>
<path d="M105.399 332.788C103.687 332.788 102.135 332.42 100.743 331.684C99.3672 330.932 98.2792 329.9 97.4792 328.588C96.6952 327.26 96.3032 325.764 96.3032 324.1C96.3032 322.436 96.6952 320.948 97.4792 319.636C98.2792 318.308 99.3672 317.276 100.743 316.54C102.135 315.788 103.695 315.412 105.423 315.412C106.879 315.412 108.191 315.668 109.359 316.18C110.543 316.692 111.535 317.428 112.335 318.388L109.839 320.692C108.703 319.38 107.295 318.724 105.615 318.724C104.575 318.724 103.647 318.956 102.831 319.42C102.015 319.868 101.375 320.5 100.911 321.316C100.463 322.132 100.239 323.06 100.239 324.1C100.239 325.14 100.463 326.068 100.911 326.884C101.375 327.7 102.015 328.34 102.831 328.804C103.647 329.252 104.575 329.476 105.615 329.476C107.295 329.476 108.703 328.812 109.839 327.484L112.335 329.788C111.535 330.764 110.543 331.508 109.359 332.02C108.175 332.532 106.855 332.788 105.399 332.788ZM119.811 319.396C121.811 319.396 123.347 319.876 124.419 320.836C125.491 321.78 126.027 323.212 126.027 325.132V332.5H122.523V330.892C121.819 332.092 120.507 332.692 118.587 332.692C117.595 332.692 116.731 332.524 115.995 332.188C115.275 331.852 114.723 331.388 114.339 330.796C113.955 330.204 113.763 329.532 113.763 328.78C113.763 327.58 114.211 326.636 115.107 325.948C116.019 325.26 117.419 324.916 119.307 324.916H122.283C122.283 324.1 122.035 323.476 121.539 323.044C121.043 322.596 120.299 322.372 119.307 322.372C118.619 322.372 117.939 322.484 117.267 322.708C116.611 322.916 116.051 323.204 115.587 323.572L114.243 320.956C114.947 320.46 115.787 320.076 116.763 319.804C117.755 319.532 118.771 319.396 119.811 319.396ZM119.523 330.172C120.163 330.172 120.731 330.028 121.227 329.74C121.723 329.436 122.075 328.996 122.283 328.42V327.1H119.715C118.179 327.1 117.411 327.604 117.411 328.612C117.411 329.092 117.595 329.476 117.963 329.764C118.347 330.036 118.867 330.172 119.523 330.172ZM142.708 314.692V332.5H139.132V331.012C138.204 332.132 136.86 332.692 135.1 332.692C133.884 332.692 132.78 332.42 131.788 331.876C130.812 331.332 130.044 330.556 129.484 329.548C128.924 328.54 128.644 327.372 128.644 326.044C128.644 324.716 128.924 323.548 129.484 322.54C130.044 321.532 130.812 320.756 131.788 320.212C132.78 319.668 133.884 319.396 135.1 319.396C136.748 319.396 138.036 319.916 138.964 320.956V314.692H142.708ZM135.748 329.62C136.692 329.62 137.476 329.3 138.1 328.66C138.724 328.004 139.036 327.132 139.036 326.044C139.036 324.956 138.724 324.092 138.1 323.452C137.476 322.796 136.692 322.468 135.748 322.468C134.788 322.468 133.996 322.796 133.372 323.452C132.748 324.092 132.436 324.956 132.436 326.044C132.436 327.132 132.748 328.004 133.372 328.66C133.996 329.3 134.788 329.62 135.748 329.62ZM151.381 319.396C153.381 319.396 154.917 319.876 155.989 320.836C157.061 321.78 157.597 323.212 157.597 325.132V332.5H154.093V330.892C153.389 332.092 152.077 332.692 150.157 332.692C149.165 332.692 148.301 332.524 147.565 332.188C146.845 331.852 146.293 331.388 145.909 330.796C145.525 330.204 145.333 329.532 145.333 328.78C145.333 327.58 145.781 326.636 146.677 325.948C147.589 325.26 148.989 324.916 150.877 324.916H153.853C153.853 324.1 153.605 323.476 153.109 323.044C152.613 322.596 151.869 322.372 150.877 322.372C150.189 322.372 149.509 322.484 148.837 322.708C148.181 322.916 147.621 323.204 147.157 323.572L145.813 320.956C146.517 320.46 147.357 320.076 148.333 319.804C149.325 319.532 150.341 319.396 151.381 319.396ZM151.093 330.172C151.733 330.172 152.301 330.028 152.797 329.74C153.293 329.436 153.645 328.996 153.853 328.42V327.1H151.285C149.749 327.1 148.981 327.604 148.981 328.612C148.981 329.092 149.165 329.476 149.533 329.764C149.917 330.036 150.437 330.172 151.093 330.172ZM165.33 332.692C164.258 332.692 163.21 332.564 162.186 332.308C161.162 332.036 160.346 331.7 159.738 331.3L160.986 328.612C161.562 328.98 162.258 329.284 163.074 329.524C163.89 329.748 164.69 329.86 165.474 329.86C167.058 329.86 167.85 329.468 167.85 328.684C167.85 328.316 167.634 328.052 167.202 327.892C166.77 327.732 166.106 327.596 165.21 327.484C164.154 327.324 163.282 327.14 162.594 326.932C161.906 326.724 161.306 326.356 160.794 325.828C160.298 325.3 160.05 324.548 160.05 323.572C160.05 322.756 160.282 322.036 160.746 321.412C161.226 320.772 161.914 320.276 162.81 319.924C163.722 319.572 164.794 319.396 166.026 319.396C166.938 319.396 167.842 319.5 168.738 319.708C169.65 319.9 170.402 320.172 170.994 320.524L169.746 323.188C168.61 322.548 167.37 322.228 166.026 322.228C165.226 322.228 164.626 322.34 164.226 322.564C163.826 322.788 163.626 323.076 163.626 323.428C163.626 323.828 163.842 324.108 164.274 324.268C164.706 324.428 165.394 324.58 166.338 324.724C167.394 324.9 168.258 325.092 168.93 325.3C169.602 325.492 170.186 325.852 170.682 326.38C171.178 326.908 171.426 327.644 171.426 328.588C171.426 329.388 171.186 330.1 170.706 330.724C170.226 331.348 169.522 331.836 168.594 332.188C167.682 332.524 166.594 332.692 165.33 332.692ZM182.064 331.876C181.696 332.148 181.24 332.356 180.696 332.5C180.168 332.628 179.608 332.692 179.016 332.692C177.48 332.692 176.288 332.3 175.44 331.516C174.608 330.732 174.192 329.58 174.192 328.06V322.756H172.2V319.876H174.192V316.732H177.936V319.876H181.152V322.756H177.936V328.012C177.936 328.556 178.072 328.98 178.344 329.284C178.632 329.572 179.032 329.716 179.544 329.716C180.136 329.716 180.64 329.556 181.056 329.236L182.064 331.876ZM187.742 321.292C188.19 320.668 188.79 320.196 189.542 319.876C190.31 319.556 191.19 319.396 192.182 319.396V322.852C191.766 322.82 191.486 322.804 191.342 322.804C190.27 322.804 189.43 323.108 188.822 323.716C188.214 324.308 187.91 325.204 187.91 326.404V332.5H184.166V319.588H187.742V321.292ZM200.435 332.692C199.075 332.692 197.851 332.412 196.763 331.852C195.691 331.276 194.851 330.484 194.243 329.476C193.635 328.468 193.331 327.324 193.331 326.044C193.331 324.764 193.635 323.62 194.243 322.612C194.851 321.604 195.691 320.82 196.763 320.26C197.851 319.684 199.075 319.396 200.435 319.396C201.795 319.396 203.011 319.684 204.083 320.26C205.155 320.82 205.995 321.604 206.603 322.612C207.211 323.62 207.515 324.764 207.515 326.044C207.515 327.324 207.211 328.468 206.603 329.476C205.995 330.484 205.155 331.276 204.083 331.852C203.011 332.412 201.795 332.692 200.435 332.692ZM200.435 329.62C201.395 329.62 202.179 329.3 202.787 328.66C203.411 328.004 203.723 327.132 203.723 326.044C203.723 324.956 203.411 324.092 202.787 323.452C202.179 322.796 201.395 322.468 200.435 322.468C199.475 322.468 198.683 322.796 198.059 323.452C197.435 324.092 197.123 324.956 197.123 326.044C197.123 327.132 197.435 328.004 198.059 328.66C198.683 329.3 199.475 329.62 200.435 329.62ZM220.39 321.292C220.838 320.668 221.438 320.196 222.19 319.876C222.958 319.556 223.838 319.396 224.83 319.396V322.852C224.414 322.82 224.134 322.804 223.99 322.804C222.918 322.804 222.078 323.108 221.47 323.716C220.862 324.308 220.558 325.204 220.558 326.404V332.5H216.814V319.588H220.39V321.292ZM239.587 326.092C239.587 326.14 239.563 326.476 239.515 327.1H229.747C229.923 327.9 230.339 328.532 230.995 328.996C231.651 329.46 232.467 329.692 233.443 329.692C234.115 329.692 234.707 329.596 235.219 329.404C235.747 329.196 236.235 328.876 236.683 328.444L238.675 330.604C237.459 331.996 235.683 332.692 233.347 332.692C231.891 332.692 230.603 332.412 229.483 331.852C228.363 331.276 227.499 330.484 226.891 329.476C226.283 328.468 225.979 327.324 225.979 326.044C225.979 324.78 226.275 323.644 226.867 322.636C227.475 321.612 228.299 320.82 229.339 320.26C230.395 319.684 231.571 319.396 232.867 319.396C234.131 319.396 235.275 319.668 236.299 320.212C237.323 320.756 238.123 321.54 238.699 322.564C239.291 323.572 239.587 324.748 239.587 326.092ZM232.891 322.228C232.043 322.228 231.331 322.468 230.755 322.948C230.179 323.428 229.827 324.084 229.699 324.916H236.059C235.931 324.1 235.579 323.452 235.003 322.972C234.427 322.476 233.723 322.228 232.891 322.228ZM246.936 319.396C248.936 319.396 250.472 319.876 251.544 320.836C252.616 321.78 253.152 323.212 253.152 325.132V332.5H249.648V330.892C248.944 332.092 247.632 332.692 245.712 332.692C244.72 332.692 243.856 332.524 243.12 332.188C242.4 331.852 241.848 331.388 241.464 330.796C241.08 330.204 240.888 329.532 240.888 328.78C240.888 327.58 241.336 326.636 242.232 325.948C243.144 325.26 244.544 324.916 246.432 324.916H249.408C249.408 324.1 249.16 323.476 248.664 323.044C248.168 322.596 247.424 322.372 246.432 322.372C245.744 322.372 245.064 322.484 244.392 322.708C243.736 322.916 243.176 323.204 242.712 323.572L241.368 320.956C242.072 320.46 242.912 320.076 243.888 319.804C244.88 319.532 245.896 319.396 246.936 319.396ZM246.648 330.172C247.288 330.172 247.856 330.028 248.352 329.74C248.848 329.436 249.2 328.996 249.408 328.42V327.1H246.84C245.304 327.1 244.536 327.604 244.536 328.612C244.536 329.092 244.72 329.476 245.088 329.764C245.472 330.036 245.992 330.172 246.648 330.172ZM256.541 314.692H260.285V332.5H256.541V314.692ZM263.759 319.588H267.503V332.5H263.759V319.588ZM265.631 317.788C264.943 317.788 264.383 317.588 263.951 317.188C263.519 316.788 263.303 316.292 263.303 315.7C263.303 315.108 263.519 314.612 263.951 314.212C264.383 313.812 264.943 313.612 265.631 313.612C266.319 313.612 266.879 313.804 267.311 314.188C267.743 314.572 267.959 315.052 267.959 315.628C267.959 316.252 267.743 316.772 267.311 317.188C266.879 317.588 266.319 317.788 265.631 317.788ZM281.61 329.62V332.5H270.09V330.244L276.666 322.468H270.258V319.588H281.394V321.844L274.818 329.62H281.61ZM289.217 319.396C291.217 319.396 292.753 319.876 293.825 320.836C294.897 321.78 295.433 323.212 295.433 325.132V332.5H291.929V330.892C291.225 332.092 289.913 332.692 287.993 332.692C287.001 332.692 286.137 332.524 285.401 332.188C284.681 331.852 284.129 331.388 283.745 330.796C283.361 330.204 283.169 329.532 283.169 328.78C283.169 327.58 283.617 326.636 284.513 325.948C285.425 325.26 286.825 324.916 288.713 324.916H291.689C291.689 324.1 291.441 323.476 290.945 323.044C290.449 322.596 289.705 322.372 288.713 322.372C288.025 322.372 287.345 322.484 286.673 322.708C286.017 322.916 285.457 323.204 284.993 323.572L283.649 320.956C284.353 320.46 285.193 320.076 286.169 319.804C287.161 319.532 288.177 319.396 289.217 319.396ZM288.929 330.172C289.569 330.172 290.137 330.028 290.633 329.74C291.129 329.436 291.481 328.996 291.689 328.42V327.1H289.121C287.585 327.1 286.817 327.604 286.817 328.612C286.817 329.092 287.001 329.476 287.369 329.764C287.753 330.036 288.273 330.172 288.929 330.172ZM312.114 314.692V332.5H308.538V331.012C307.61 332.132 306.266 332.692 304.506 332.692C303.29 332.692 302.186 332.42 301.194 331.876C300.218 331.332 299.45 330.556 298.89 329.548C298.33 328.54 298.05 327.372 298.05 326.044C298.05 324.716 298.33 323.548 298.89 322.54C299.45 321.532 300.218 320.756 301.194 320.212C302.186 319.668 303.29 319.396 304.506 319.396C306.154 319.396 307.442 319.916 308.37 320.956V314.692H312.114ZM305.154 329.62C306.098 329.62 306.882 329.3 307.506 328.66C308.13 328.004 308.442 327.132 308.442 326.044C308.442 324.956 308.13 324.092 307.506 323.452C306.882 322.796 306.098 322.468 305.154 322.468C304.194 322.468 303.402 322.796 302.778 323.452C302.154 324.092 301.842 324.956 301.842 326.044C301.842 327.132 302.154 328.004 302.778 328.66C303.402 329.3 304.194 329.62 305.154 329.62ZM321.724 332.692C320.364 332.692 319.14 332.412 318.052 331.852C316.98 331.276 316.14 330.484 315.532 329.476C314.924 328.468 314.62 327.324 314.62 326.044C314.62 324.764 314.924 323.62 315.532 322.612C316.14 321.604 316.98 320.82 318.052 320.26C319.14 319.684 320.364 319.396 321.724 319.396C323.084 319.396 324.3 319.684 325.372 320.26C326.444 320.82 327.284 321.604 327.892 322.612C328.5 323.62 328.804 324.764 328.804 326.044C328.804 327.324 328.5 328.468 327.892 329.476C327.284 330.484 326.444 331.276 325.372 331.852C324.3 332.412 323.084 332.692 321.724 332.692ZM321.724 329.62C322.684 329.62 323.468 329.3 324.076 328.66C324.7 328.004 325.012 327.132 325.012 326.044C325.012 324.956 324.7 324.092 324.076 323.452C323.468 322.796 322.684 322.468 321.724 322.468C320.764 322.468 319.972 322.796 319.348 323.452C318.724 324.092 318.412 324.956 318.412 326.044C318.412 327.132 318.724 328.004 319.348 328.66C319.972 329.3 320.764 329.62 321.724 329.62ZM344.343 332.692C342.967 332.692 341.727 332.412 340.623 331.852C339.535 331.276 338.679 330.484 338.055 329.476C337.447 328.468 337.143 327.324 337.143 326.044C337.143 324.764 337.447 323.62 338.055 322.612C338.679 321.604 339.535 320.82 340.623 320.26C341.727 319.684 342.967 319.396 344.343 319.396C345.703 319.396 346.887 319.684 347.895 320.26C348.919 320.82 349.663 321.628 350.127 322.684L347.223 324.244C346.551 323.06 345.583 322.468 344.319 322.468C343.343 322.468 342.535 322.788 341.895 323.428C341.255 324.068 340.935 324.94 340.935 326.044C340.935 327.148 341.255 328.02 341.895 328.66C342.535 329.3 343.343 329.62 344.319 329.62C345.599 329.62 346.567 329.028 347.223 327.844L350.127 329.428C349.663 330.452 348.919 331.252 347.895 331.828C346.887 332.404 345.703 332.692 344.343 332.692ZM358.263 332.692C356.903 332.692 355.679 332.412 354.591 331.852C353.519 331.276 352.679 330.484 352.071 329.476C351.463 328.468 351.159 327.324 351.159 326.044C351.159 324.764 351.463 323.62 352.071 322.612C352.679 321.604 353.519 320.82 354.591 320.26C355.679 319.684 356.903 319.396 358.263 319.396C359.623 319.396 360.839 319.684 361.911 320.26C362.983 320.82 363.823 321.604 364.431 322.612C365.039 323.62 365.343 324.764 365.343 326.044C365.343 327.324 365.039 328.468 364.431 329.476C363.823 330.484 362.983 331.276 361.911 331.852C360.839 332.412 359.623 332.692 358.263 332.692ZM358.263 329.62C359.223 329.62 360.007 329.3 360.615 328.66C361.239 328.004 361.551 327.132 361.551 326.044C361.551 324.956 361.239 324.092 360.615 323.452C360.007 322.796 359.223 322.468 358.263 322.468C357.303 322.468 356.511 322.796 355.887 323.452C355.263 324.092 354.951 324.956 354.951 326.044C354.951 327.132 355.263 328.004 355.887 328.66C356.511 329.3 357.303 329.62 358.263 329.62ZM384.381 319.396C385.997 319.396 387.277 319.876 388.221 320.836C389.181 321.78 389.661 323.204 389.661 325.108V332.5H385.917V325.684C385.917 324.66 385.701 323.9 385.269 323.404C384.853 322.892 384.253 322.636 383.469 322.636C382.589 322.636 381.893 322.924 381.381 323.5C380.869 324.06 380.613 324.9 380.613 326.02V332.5H376.869V325.684C376.869 323.652 376.053 322.636 374.421 322.636C373.557 322.636 372.869 322.924 372.357 323.5C371.845 324.06 371.589 324.9 371.589 326.02V332.5H367.845V319.588H371.421V321.076C371.901 320.532 372.485 320.116 373.173 319.828C373.877 319.54 374.645 319.396 375.477 319.396C376.389 319.396 377.213 319.58 377.949 319.948C378.685 320.3 379.277 320.82 379.725 321.508C380.253 320.836 380.917 320.316 381.717 319.948C382.533 319.58 383.421 319.396 384.381 319.396ZM404.158 332.692C403.086 332.692 402.038 332.564 401.014 332.308C399.99 332.036 399.174 331.7 398.566 331.3L399.814 328.612C400.39 328.98 401.086 329.284 401.902 329.524C402.718 329.748 403.518 329.86 404.302 329.86C405.886 329.86 406.678 329.468 406.678 328.684C406.678 328.316 406.462 328.052 406.03 327.892C405.598 327.732 404.934 327.596 404.038 327.484C402.982 327.324 402.11 327.14 401.422 326.932C400.734 326.724 400.134 326.356 399.622 325.828C399.126 325.3 398.878 324.548 398.878 323.572C398.878 322.756 399.11 322.036 399.574 321.412C400.054 320.772 400.742 320.276 401.638 319.924C402.55 319.572 403.622 319.396 404.854 319.396C405.766 319.396 406.67 319.5 407.566 319.708C408.478 319.9 409.23 320.172 409.822 320.524L408.574 323.188C407.438 322.548 406.198 322.228 404.854 322.228C404.054 322.228 403.454 322.34 403.054 322.564C402.654 322.788 402.454 323.076 402.454 323.428C402.454 323.828 402.67 324.108 403.102 324.268C403.534 324.428 404.222 324.58 405.166 324.724C406.222 324.9 407.086 325.092 407.758 325.3C408.43 325.492 409.014 325.852 409.51 326.38C410.006 326.908 410.254 327.644 410.254 328.588C410.254 329.388 410.014 330.1 409.534 330.724C409.054 331.348 408.35 331.836 407.422 332.188C406.51 332.524 405.422 332.692 404.158 332.692ZM425.572 319.588V332.5H422.02V330.964C421.524 331.524 420.932 331.956 420.244 332.26C419.556 332.548 418.812 332.692 418.012 332.692C416.316 332.692 414.972 332.204 413.98 331.228C412.988 330.252 412.492 328.804 412.492 326.884V319.588H416.236V326.332C416.236 328.412 417.108 329.452 418.852 329.452C419.748 329.452 420.468 329.164 421.012 328.588C421.556 327.996 421.828 327.124 421.828 325.972V319.588H425.572ZM435.281 332.692C433.905 332.692 432.665 332.412 431.561 331.852C430.473 331.276 429.617 330.484 428.993 329.476C428.385 328.468 428.081 327.324 428.081 326.044C428.081 324.764 428.385 323.62 428.993 322.612C429.617 321.604 430.473 320.82 431.561 320.26C432.665 319.684 433.905 319.396 435.281 319.396C436.641 319.396 437.825 319.684 438.833 320.26C439.857 320.82 440.601 321.628 441.065 322.684L438.161 324.244C437.489 323.06 436.521 322.468 435.257 322.468C434.281 322.468 433.473 322.788 432.833 323.428C432.193 324.068 431.873 324.94 431.873 326.044C431.873 327.148 432.193 328.02 432.833 328.66C433.473 329.3 434.281 329.62 435.257 329.62C436.537 329.62 437.505 329.028 438.161 327.844L441.065 329.428C440.601 330.452 439.857 331.252 438.833 331.828C437.825 332.404 436.641 332.692 435.281 332.692ZM455.704 326.092C455.704 326.14 455.68 326.476 455.632 327.1H445.864C446.04 327.9 446.456 328.532 447.112 328.996C447.768 329.46 448.584 329.692 449.56 329.692C450.232 329.692 450.824 329.596 451.336 329.404C451.864 329.196 452.352 328.876 452.8 328.444L454.792 330.604C453.576 331.996 451.8 332.692 449.464 332.692C448.008 332.692 446.72 332.412 445.6 331.852C444.48 331.276 443.616 330.484 443.008 329.476C442.4 328.468 442.096 327.324 442.096 326.044C442.096 324.78 442.392 323.644 442.984 322.636C443.592 321.612 444.416 320.82 445.456 320.26C446.512 319.684 447.688 319.396 448.984 319.396C450.248 319.396 451.392 319.668 452.416 320.212C453.44 320.756 454.24 321.54 454.816 322.564C455.408 323.572 455.704 324.748 455.704 326.092ZM449.008 322.228C448.16 322.228 447.448 322.468 446.872 322.948C446.296 323.428 445.944 324.084 445.816 324.916H452.176C452.048 324.1 451.696 323.452 451.12 322.972C450.544 322.476 449.84 322.228 449.008 322.228ZM462.541 332.692C461.469 332.692 460.421 332.564 459.397 332.308C458.373 332.036 457.557 331.7 456.949 331.3L458.197 328.612C458.773 328.98 459.469 329.284 460.285 329.524C461.101 329.748 461.901 329.86 462.685 329.86C464.269 329.86 465.061 329.468 465.061 328.684C465.061 328.316 464.845 328.052 464.413 327.892C463.981 327.732 463.317 327.596 462.421 327.484C461.365 327.324 460.493 327.14 459.805 326.932C459.117 326.724 458.517 326.356 458.005 325.828C457.509 325.3 457.261 324.548 457.261 323.572C457.261 322.756 457.493 322.036 457.957 321.412C458.437 320.772 459.125 320.276 460.021 319.924C460.933 319.572 462.005 319.396 463.237 319.396C464.149 319.396 465.053 319.5 465.949 319.708C466.861 319.9 467.613 320.172 468.205 320.524L466.957 323.188C465.821 322.548 464.581 322.228 463.237 322.228C462.437 322.228 461.837 322.34 461.437 322.564C461.037 322.788 460.837 323.076 460.837 323.428C460.837 323.828 461.053 324.108 461.485 324.268C461.917 324.428 462.605 324.58 463.549 324.724C464.605 324.9 465.469 325.092 466.141 325.3C466.813 325.492 467.397 325.852 467.893 326.38C468.389 326.908 468.637 327.644 468.637 328.588C468.637 329.388 468.397 330.1 467.917 330.724C467.437 331.348 466.733 331.836 465.805 332.188C464.893 332.524 463.805 332.692 462.541 332.692ZM475.291 332.692C474.219 332.692 473.171 332.564 472.147 332.308C471.123 332.036 470.307 331.7 469.699 331.3L470.947 328.612C471.523 328.98 472.219 329.284 473.035 329.524C473.851 329.748 474.651 329.86 475.435 329.86C477.019 329.86 477.811 329.468 477.811 328.684C477.811 328.316 477.595 328.052 477.163 327.892C476.731 327.732 476.067 327.596 475.171 327.484C474.115 327.324 473.243 327.14 472.555 326.932C471.867 326.724 471.267 326.356 470.755 325.828C470.259 325.3 470.011 324.548 470.011 323.572C470.011 322.756 470.243 322.036 470.707 321.412C471.187 320.772 471.875 320.276 472.771 319.924C473.683 319.572 474.755 319.396 475.987 319.396C476.899 319.396 477.803 319.5 478.699 319.708C479.611 319.9 480.363 320.172 480.955 320.524L479.707 323.188C478.571 322.548 477.331 322.228 475.987 322.228C475.187 322.228 474.587 322.34 474.187 322.564C473.787 322.788 473.587 323.076 473.587 323.428C473.587 323.828 473.803 324.108 474.235 324.268C474.667 324.428 475.355 324.58 476.299 324.724C477.355 324.9 478.219 325.092 478.891 325.3C479.563 325.492 480.147 325.852 480.643 326.38C481.139 326.908 481.387 327.644 481.387 328.588C481.387 329.388 481.147 330.1 480.667 330.724C480.187 331.348 479.483 331.836 478.555 332.188C477.643 332.524 476.555 332.692 475.291 332.692ZM489.841 332.692C488.481 332.692 487.257 332.412 486.169 331.852C485.097 331.276 484.257 330.484 483.649 329.476C483.041 328.468 482.737 327.324 482.737 326.044C482.737 324.764 483.041 323.62 483.649 322.612C484.257 321.604 485.097 320.82 486.169 320.26C487.257 319.684 488.481 319.396 489.841 319.396C491.201 319.396 492.417 319.684 493.489 320.26C494.561 320.82 495.401 321.604 496.009 322.612C496.617 323.62 496.921 324.764 496.921 326.044C496.921 327.324 496.617 328.468 496.009 329.476C495.401 330.484 494.561 331.276 493.489 331.852C492.417 332.412 491.201 332.692 489.841 332.692ZM489.841 329.62C490.801 329.62 491.585 329.3 492.193 328.66C492.817 328.004 493.129 327.132 493.129 326.044C493.129 324.956 492.817 324.092 492.193 323.452C491.585 322.796 490.801 322.468 489.841 322.468C488.881 322.468 488.089 322.796 487.465 323.452C486.841 324.092 486.529 324.956 486.529 326.044C486.529 327.132 486.841 328.004 487.465 328.66C488.089 329.3 488.881 329.62 489.841 329.62ZM498.943 315.7H503.407L502.663 326.668H499.687L498.943 315.7ZM501.175 332.692C500.519 332.692 499.967 332.484 499.519 332.068C499.087 331.636 498.871 331.116 498.871 330.508C498.871 329.9 499.087 329.396 499.519 328.996C499.951 328.58 500.503 328.372 501.175 328.372C501.847 328.372 502.399 328.58 502.831 328.996C503.263 329.396 503.479 329.9 503.479 330.508C503.479 331.116 503.255 331.636 502.807 332.068C502.375 332.484 501.831 332.692 501.175 332.692Z" fill="#343447"/>
<path fill-rule="evenodd" clip-rule="evenodd" d="M323.345 215.136C324.474 216.059 324.576 217.651 323.572 218.69L294.379 248.896C293.86 249.434 293.115 249.741 292.333 249.741C291.552 249.741 290.807 249.434 290.288 248.896L275.691 233.793C274.687 232.754 274.789 231.163 275.919 230.239C277.048 229.316 278.778 229.409 279.782 230.448L292.333 243.435L319.481 215.345C320.485 214.306 322.215 214.212 323.345 215.136Z" fill="#0E8750"/>
<circle cx="300" cy="232.5" r="50" stroke="#0E8750" stroke-width="4"/>
</svg>
